<svg xmlns="http://www.w3.org/2000/svg" width="1600" height="1000" viewBox="0 0 1600 1000">
  <defs>
    <radialGradient id="boardBg" cx="30%" cy="16%" r="92%">
      <stop offset="0" stop-color="#eef4f6"/>
      <stop offset="0.34" stop-color="#c8d6dc"/>
      <stop offset="0.68" stop-color="#879aa2"/>
      <stop offset="1" stop-color="#4a5b61"/>
    </radialGradient>
    <linearGradient id="phoneBg" x1="0" y1="0" x2="1" y2="1">
      <stop offset="0" stop-color="#172025"/>
      <stop offset="0.48" stop-color="#29363b"/>
      <stop offset="1" stop-color="#0f1518"/>
    </linearGradient>
    <linearGradient id="mistPanel" x1="0" y1="0" x2="1" y2="1">
      <stop offset="0" stop-color="rgba(255,255,255,.18)"/>
      <stop offset="0.48" stop-color="rgba(255,255,255,.08)"/>
      <stop offset="1" stop-color="rgba(7,12,15,.12)"/>
    </linearGradient>
    <linearGradient id="inkPanel" x1="0" y1="0" x2="1" y2="1">
      <stop offset="0" stop-color="#22282b"/>
      <stop offset="0.52" stop-color="#171b1e"/>
      <stop offset="1" stop-color="#0f1214"/>
    </linearGradient>
    <linearGradient id="raisedPanel" x1="0" y1="0" x2="1" y2="1">
      <stop offset="0" stop-color="#f6f9fa"/>
      <stop offset="1" stop-color="#dfe8eb"/>
    </linearGradient>
    <linearGradient id="macChrome" x1="0" y1="0" x2="1" y2="1">
      <stop offset="0" stop-color="#eef4f5"/>
      <stop offset="1" stop-color="#c7d4d8"/>
    </linearGradient>
    <filter id="shadowBig" x="-20%" y="-20%" width="140%" height="140%">
      <feDropShadow dx="0" dy="30" stdDeviation="34" flood-color="#081014" flood-opacity=".30"/>
    </filter>
    <filter id="shadowSoft" x="-20%" y="-20%" width="140%" height="140%">
      <feDropShadow dx="0" dy="18" stdDeviation="22" flood-color="#0b1419" flood-opacity=".17"/>
      <feDropShadow dx="0" dy="1" stdDeviation=".5" flood-color="#ffffff" flood-opacity=".38"/>
    </filter>
    <filter id="innerLight" x="-10%" y="-10%" width="120%" height="120%">
      <feDropShadow dx="0" dy="-1" stdDeviation=".5" flood-color="#ffffff" flood-opacity=".35"/>
    </filter>
    <style>
      .font { font-family: -apple-system, BlinkMacSystemFont, "SF Pro Display", "PingFang SC", "Apple Color Emoji", sans-serif; }
      .mono { font-family: "SF Mono", "SFMono-Regular", ui-monospace, Menlo, monospace; }
      .white { fill: #f7fbfc; }
      .mist { fill: rgba(247,251,252,.68); }
      .muted { fill: rgba(247,251,252,.48); }
      .ink { fill: #111619; }
      .ink2 { fill: #253037; }
      .softInk { fill: rgba(17,22,25,.64); }
      .orange { fill: #ff8751; }
      .green { fill: #39d468; }
      .label { fill: rgba(247,251,252,.92); font-size: 20px; font-weight: 520; }
      .pct { fill: #ffffff; font-size: 30px; font-weight: 790; }
      .small { font-size: 16px; }
    </style>
  </defs>

  <rect width="1600" height="1000" fill="url(#boardBg)"/>
  <g opacity=".24">
    <ellipse cx="230" cy="880" rx="460" ry="160" fill="#182428"/>
    <ellipse cx="980" cy="130" rx="520" ry="180" fill="#ffffff"/>
    <ellipse cx="1270" cy="830" rx="390" ry="170" fill="#394b51"/>
  </g>

  <text x="54" y="70" class="font ink" font-size="30" font-weight="820">AI Usage · Unified Graphite Mist</text>
  <text x="54" y="106" class="font softInk" font-size="17" font-weight="620">One appearance. Same material language across widget, iPhone app, Mac connector, and states.</text>

  <!-- Main iPhone home -->
  <g transform="translate(54 128)" filter="url(#shadowBig)">
    <rect x="0" y="0" width="690" height="812" rx="78" fill="#0c1013"/>
    <rect x="17" y="17" width="656" height="778" rx="64" fill="url(#phoneBg)"/>
    <rect x="283" y="31" width="126" height="39" rx="20" fill="#050607"/>
    <text x="94" y="83" class="font white" font-size="30" font-weight="720">09:41</text>
    <text x="518" y="82" class="font white" font-size="23" font-weight="720">▮▮▮  Wi‑Fi</text>

    <!-- medium widget -->
    <g transform="translate(74 120)" filter="url(#innerLight)">
      <rect x="0" y="0" width="542" height="272" rx="36" fill="url(#mistPanel)" stroke="rgba(255,255,255,.24)" stroke-width="1.4"/>
      <rect x="10" y="10" width="522" height="252" rx="29" fill="url(#inkPanel)" stroke="rgba(255,255,255,.10)" stroke-width="1"/>
      <text x="28" y="48" class="font white" font-size="25" font-weight="820">别问了还剩这么点🤏</text>
      <rect x="352" y="20" width="134" height="36" rx="18" fill="rgba(255,255,255,.10)" stroke="rgba(255,255,255,.16)"/>
      <text x="370" y="44" class="font" font-size="14" font-weight="680" fill="#dbe1e4">摸到了，刚刷新😏</text>
      <circle cx="504" cy="38" r="18" fill="rgba(255,255,255,.10)" stroke="rgba(255,255,255,.16)"/>
      <text x="496" y="46" class="font white" font-size="22">↻</text>

      <line x1="270" y1="76" x2="270" y2="232" stroke="rgba(255,255,255,.15)" stroke-width="1"/>
      <text x="30" y="102" class="font orange" font-size="26" font-weight="800">Claude</text>
      <text x="30" y="140" class="label">5h</text>
      <text x="222" y="140" class="pct">3%</text>
      <rect x="30" y="157" width="200" height="10" rx="5" fill="rgba(255,255,255,.24)"/>
      <rect x="30" y="157" width="8" height="10" rx="5" fill="#ff8751"/>
      <text x="30" y="191" class="font small muted">22:06 恢复</text>
      <text x="30" y="224" class="label">周</text>
      <text x="222" y="224" class="pct">0%</text>
      <rect x="30" y="239" width="200" height="10" rx="5" fill="rgba(255,255,255,.24)"/>
      <text x="30" y="265" class="font small muted">6月16日 恢复</text>

      <text x="300" y="102" class="font green" font-size="26" font-weight="800">Codex</text>
      <text x="300" y="140" class="label">5h</text>
      <text x="472" y="140" class="pct">99%</text>
      <rect x="300" y="157" width="200" height="10" rx="5" fill="rgba(255,255,255,.24)"/>
      <rect x="300" y="157" width="198" height="10" rx="5" fill="#39d468"/>
      <text x="300" y="191" class="font small muted">22:06 恢复</text>
      <text x="300" y="224" class="label">周</text>
      <text x="472" y="224" class="pct">94%</text>
      <rect x="300" y="239" width="200" height="10" rx="5" fill="rgba(255,255,255,.24)"/>
      <rect x="300" y="239" width="188" height="10" rx="5" fill="#39d468"/>
      <text x="300" y="265" class="font small muted">6月16日 恢复</text>
    </g>

    <text x="315" y="438" class="font white" font-size="21" font-weight="650">AI Usage</text>

    <!-- state cards -->
    <g transform="translate(74 520)">
      <g>
        <rect width="132" height="132" rx="28" fill="url(#inkPanel)" stroke="rgba(255,255,255,.13)"/>
        <text x="18" y="32" class="font white" font-size="12" font-weight="760">别问了还剩这么点🤏</text>
        <text x="18" y="68" class="font orange" font-size="18" font-weight="780">Claude</text>
        <rect x="18" y="88" width="76" height="8" rx="4" fill="rgba(255,255,255,.24)"/>
        <rect x="18" y="88" width="60" height="8" rx="4" fill="#ff9d2f"/>
        <text x="100" y="96" class="font white" font-size="14" font-weight="720">80%</text>
      </g>
      <g transform="translate(150 0)">
        <rect width="132" height="132" rx="28" fill="url(#inkPanel)" stroke="rgba(255,255,255,.13)"/>
        <text x="18" y="32" class="font white" font-size="12" font-weight="760">别问了还剩这么点🤏</text>
        <text x="18" y="72" class="font white" font-size="19" font-weight="800">用量装神秘🙄</text>
        <text x="18" y="104" class="font muted" font-size="14" font-weight="560">官方又藏了</text>
      </g>
      <g transform="translate(300 0)">
        <rect width="132" height="132" rx="28" fill="url(#inkPanel)" stroke="rgba(255,255,255,.13)"/>
        <text x="18" y="32" class="font white" font-size="12" font-weight="760">别问了还剩这么点🤏</text>
        <text x="18" y="72" class="font white" font-size="20" font-weight="800">摸 Mac 中...🫳</text>
        <circle cx="67" cy="104" r="12" fill="none" stroke="rgba(255,255,255,.24)" stroke-width="4" stroke-dasharray="18 18"/>
      </g>
      <g transform="translate(450 0)">
        <rect width="132" height="132" rx="28" fill="url(#inkPanel)" stroke="rgba(255,255,255,.13)"/>
        <text x="18" y="32" class="font white" font-size="12" font-weight="760">别问了还剩这么点🤏</text>
        <text x="18" y="72" class="font white" font-size="20" font-weight="800">Mac 装睡了💤</text>
        <text x="18" y="104" class="font muted" font-size="14" font-weight="560">留着上次读数</text>
      </g>
    </g>
  </g>

  <!-- iPhone companion app, unified dark/mist shell -->
  <g transform="translate(805 132)" filter="url(#shadowBig)">
    <rect width="400" height="812" rx="54" fill="#11161a"/>
    <rect x="10" y="10" width="380" height="792" rx="45" fill="url(#phoneBg)" stroke="rgba(255,255,255,.10)"/>
    <text x="38" y="74" class="font white" font-size="36" font-weight="830">AI Usage</text>
    <rect x="294" y="38" width="72" height="38" rx="19" fill="rgba(255,255,255,.10)" stroke="rgba(255,255,255,.16)"/>
    <text x="314" y="63" class="font white" font-size="15" font-weight="690">语言</text>

    <rect x="32" y="108" width="336" height="66" rx="22" fill="url(#mistPanel)" stroke="rgba(255,255,255,.14)"/>
    <circle cx="58" cy="141" r="7" fill="#35cf62"/>
    <text x="78" y="136" class="font white" font-size="17" font-weight="750">Kaide MacBook Pro · 在线</text>
    <text x="78" y="159" class="font muted" font-size="13" font-weight="540">局域网 192.168.1.23:8787</text>
    <text x="344" y="150" class="font mist" font-size="25">›</text>

    <g transform="translate(32 202) scale(.62)">
      <rect x="0" y="0" width="542" height="272" rx="36" fill="url(#mistPanel)" stroke="rgba(255,255,255,.22)" stroke-width="1.4"/>
      <rect x="10" y="10" width="522" height="252" rx="29" fill="url(#inkPanel)" stroke="rgba(255,255,255,.10)" stroke-width="1"/>
      <text x="28" y="48" class="font white" font-size="25" font-weight="820">别问了还剩这么点🤏</text>
      <rect x="352" y="20" width="134" height="36" rx="18" fill="rgba(255,255,255,.10)" stroke="rgba(255,255,255,.16)"/>
      <text x="370" y="44" class="font" font-size="14" font-weight="680" fill="#dbe1e4">摸到了，刚刷新😏</text>
      <line x1="270" y1="76" x2="270" y2="232" stroke="rgba(255,255,255,.15)" stroke-width="1"/>
      <text x="30" y="102" class="font orange" font-size="26" font-weight="800">Claude</text>
      <text x="30" y="140" class="label">5h</text><text x="222" y="140" class="pct">3%</text>
      <rect x="30" y="157" width="200" height="10" rx="5" fill="rgba(255,255,255,.24)"/><rect x="30" y="157" width="8" height="10" rx="5" fill="#ff8751"/>
      <text x="30" y="224" class="label">周</text><text x="222" y="224" class="pct">0%</text>
      <rect x="30" y="239" width="200" height="10" rx="5" fill="rgba(255,255,255,.24)"/>
      <text x="300" y="102" class="font green" font-size="26" font-weight="800">Codex</text>
      <text x="300" y="140" class="label">5h</text><text x="472" y="140" class="pct">99%</text>
      <rect x="300" y="157" width="200" height="10" rx="5" fill="rgba(255,255,255,.24)"/><rect x="300" y="157" width="198" height="10" rx="5" fill="#39d468"/>
      <text x="300" y="224" class="label">周</text><text x="472" y="224" class="pct">94%</text>
      <rect x="300" y="239" width="200" height="10" rx="5" fill="rgba(255,255,255,.24)"/><rect x="300" y="239" width="188" height="10" rx="5" fill="#39d468"/>
    </g>

    <g transform="translate(32 400)">
      <rect width="158" height="174" rx="24" fill="url(#mistPanel)" stroke="rgba(255,255,255,.14)"/>
      <text x="22" y="38" class="font orange" font-size="21" font-weight="800">Claude</text>
      <text x="22" y="78" class="font white" font-size="18">5h</text>
      <text x="116" y="78" class="font white" font-size="22" font-weight="790">3%</text>
      <rect x="22" y="94" width="112" height="8" rx="4" fill="rgba(255,255,255,.22)"/>
      <rect x="22" y="94" width="5" height="8" rx="4" fill="#ff8751"/>
      <text x="22" y="128" class="font mist" font-size="15">周</text>
      <text x="116" y="128" class="font white" font-size="22" font-weight="790">0%</text>
      <rect x="22" y="144" width="112" height="8" rx="4" fill="rgba(255,255,255,.22)"/>
    </g>
    <g transform="translate(210 400)">
      <rect width="158" height="174" rx="24" fill="url(#mistPanel)" stroke="rgba(255,255,255,.14)"/>
      <text x="22" y="38" class="font green" font-size="21" font-weight="800">Codex</text>
      <text x="22" y="78" class="font white" font-size="18">5h</text>
      <text x="108" y="78" class="font white" font-size="22" font-weight="790">99%</text>
      <rect x="22" y="94" width="112" height="8" rx="4" fill="rgba(255,255,255,.22)"/>
      <rect x="22" y="94" width="111" height="8" rx="4" fill="#39d468"/>
      <text x="22" y="128" class="font mist" font-size="15">周</text>
      <text x="108" y="128" class="font white" font-size="22" font-weight="790">94%</text>
      <rect x="22" y="144" width="112" height="8" rx="4" fill="rgba(255,255,255,.22)"/>
      <rect x="22" y="144" width="105" height="8" rx="4" fill="#39d468"/>
    </g>

    <rect x="32" y="604" width="336" height="58" rx="22" fill="url(#inkPanel)" stroke="rgba(255,255,255,.12)"/>
    <text x="133" y="641" class="font white" font-size="19" font-weight="780">↻  刷新 Usage</text>

    <line x1="10" y1="694" x2="390" y2="694" stroke="rgba(255,255,255,.10)"/>
    <text x="72" y="746" class="font white" font-size="16" font-weight="760">▦</text>
    <text x="63" y="774" class="font mist" font-size="13" font-weight="650">概览</text>
    <text x="194" y="746" class="font muted" font-size="16" font-weight="760">↺</text>
    <text x="184" y="774" class="font muted" font-size="13" font-weight="650">历史</text>
    <text x="322" y="746" class="font muted" font-size="16" font-weight="760">⚙</text>
    <text x="312" y="774" class="font muted" font-size="13" font-weight="650">设置</text>
  </g>

  <!-- Mac connector, same material language -->
  <g transform="translate(1244 198)" filter="url(#shadowSoft)">
    <rect width="298" height="238" rx="28" fill="url(#macChrome)" stroke="rgba(255,255,255,.66)"/>
    <text x="24" y="44" class="font ink" font-size="22" font-weight="820">AI Usage 连接器</text>
    <rect x="24" y="72" width="250" height="58" rx="18" fill="rgba(255,255,255,.35)" stroke="rgba(255,255,255,.64)"/>
    <circle cx="50" cy="101" r="11" fill="#35cf62"/>
    <text x="72" y="98" class="font ink" font-size="17" font-weight="760">已连接</text>
    <text x="72" y="119" class="font softInk" font-size="13" font-weight="560">iPhone 已通过局域网连接</text>
    <rect x="24" y="150" width="112" height="56" rx="17" fill="rgba(255,255,255,.34)" stroke="rgba(255,255,255,.58)"/>
    <text x="40" y="181" class="font orange" font-size="16" font-weight="780">Claude</text>
    <text x="40" y="200" class="font ink" font-size="13" font-weight="650">5h 3%</text>
    <rect x="158" y="150" width="116" height="56" rx="17" fill="rgba(255,255,255,.34)" stroke="rgba(255,255,255,.58)"/>
    <text x="174" y="181" class="font green" font-size="16" font-weight="780">Codex</text>
    <text x="174" y="200" class="font ink" font-size="13" font-weight="650">5h 99%</text>
    <text x="24" y="224" class="font softInk" font-size="12.5" font-weight="560">不会发送 token、Cookie、对话或原始日志。</text>
  </g>

  <!-- design notes strip -->
  <g transform="translate(1244 486)" filter="url(#shadowSoft)">
    <rect width="298" height="216" rx="28" fill="rgba(19,28,33,.72)" stroke="rgba(255,255,255,.16)"/>
    <text x="24" y="42" class="font white" font-size="20" font-weight="820">Unified Rules</text>
    <text x="24" y="78" class="font mist" font-size="15" font-weight="560">1. App shell uses graphite mist.</text>
    <text x="24" y="108" class="font mist" font-size="15" font-weight="560">2. Widget/card share same radius.</text>
    <text x="24" y="138" class="font mist" font-size="15" font-weight="560">3. Claude orange, Codex green.</text>
    <text x="24" y="168" class="font mist" font-size="15" font-weight="560">4. No white-black-white mix.</text>
  </g>
</svg>
