<svg xmlns="http://www.w3.org/2000/svg" width="1600" height="1000" viewBox="0 0 1600 1000">
  <defs>
    <linearGradient id="classicBg" x1="0" y1="0" x2="1" y2="1">
      <stop offset="0" stop-color="#ecf1f5"/>
      <stop offset="0.45" stop-color="#dfe7ee"/>
      <stop offset="1" stop-color="#f7f8fa"/>
    </linearGradient>
    <linearGradient id="wallpaper" x1="0" y1="0" x2="1" y2="1">
      <stop offset="0" stop-color="#4d6570"/>
      <stop offset="0.45" stop-color="#caa77c"/>
      <stop offset="1" stop-color="#233326"/>
    </linearGradient>
    <linearGradient id="widgetBlack" x1="0" y1="0" x2="1" y2="1">
      <stop offset="0" stop-color="#272527"/>
      <stop offset="0.55" stop-color="#171719"/>
      <stop offset="1" stop-color="#101114"/>
    </linearGradient>
    <filter id="softShadow" x="-20%" y="-20%" width="140%" height="140%">
      <feDropShadow dx="0" dy="18" stdDeviation="22" flood-color="#0f1720" flood-opacity="0.18"/>
    </filter>
    <filter id="phoneShadow" x="-20%" y="-20%" width="140%" height="140%">
      <feDropShadow dx="0" dy="30" stdDeviation="34" flood-color="#111827" flood-opacity="0.28"/>
    </filter>
    <style>
      .font { font-family: -apple-system, BlinkMacSystemFont, "SF Pro Display", "PingFang SC", "Apple Color Emoji", sans-serif; }
      .mono { font-family: "SF Mono", "SFMono-Regular", ui-monospace, Menlo, monospace; }
      .muted { fill: rgba(255,255,255,.56); }
      .darkMuted { fill: #7e858c; }
      .label { fill: #f7f7f8; font-size: 21px; font-weight: 500; }
      .pct { fill: #f8f8f9; font-size: 30px; font-weight: 760; }
      .small { font-size: 17px; }
      .caption { fill: #80858d; font-size: 18px; font-weight: 560; }
    </style>
  </defs>

  <rect width="1600" height="1000" fill="url(#classicBg)"/>
  <text x="52" y="70" class="font" font-size="28" font-weight="760" fill="#111318">AI Usage · Classic Theme</text>
  <text x="52" y="104" class="font" font-size="17" font-weight="520" fill="#727982">高对比、稳、读数最快。适合作为默认 fallback，也适合旧系统。</text>

  <!-- iPhone home screen -->
  <g transform="translate(70 140)" filter="url(#phoneShadow)">
    <rect x="0" y="0" width="610" height="790" rx="78" fill="#101114"/>
    <rect x="16" y="16" width="578" height="758" rx="64" fill="url(#wallpaper)"/>
    <rect x="245" y="28" width="122" height="38" rx="19" fill="#050505"/>
    <text x="82" y="74" class="font" font-size="28" font-weight="720" fill="white">09:41</text>
    <text x="458" y="73" class="font" font-size="23" font-weight="700" fill="white">▮▮▮  Wi‑Fi</text>

    <!-- Medium widget classic -->
    <g transform="translate(54 116)">
      <rect x="0" y="0" width="502" height="258" rx="34" fill="url(#widgetBlack)" stroke="rgba(255,255,255,.08)" stroke-width="1.5"/>
      <rect x="8" y="8" width="486" height="242" rx="28" fill="rgba(255,255,255,.025)" stroke="rgba(255,255,255,.08)"/>
      <text x="28" y="48" class="font" font-size="24" font-weight="800" fill="#ffffff">别问了还剩这么点🤏</text>
      <rect x="336" y="20" width="118" height="34" rx="17" fill="rgba(255,255,255,.08)" stroke="rgba(255,255,255,.10)"/>
      <text x="352" y="43" class="font" font-size="14" font-weight="650" fill="#cfd3d8">摸到了，刚刷新😏</text>
      <circle cx="470" cy="37" r="17" fill="rgba(255,255,255,.09)" stroke="rgba(255,255,255,.12)"/>
      <text x="462" y="45" class="font" font-size="22" fill="#f7f7f7">↻</text>

      <line x1="250" y1="74" x2="250" y2="226" stroke="rgba(255,255,255,.16)" stroke-width="1"/>

      <text x="28" y="92" class="font" font-size="25" font-weight="780" fill="#ff8a50">Claude</text>
      <text x="28" y="128" class="label">5h</text>
      <text x="204" y="128" class="pct">3%</text>
      <rect x="28" y="145" width="180" height="10" rx="5" fill="rgba(255,255,255,.24)"/>
      <rect x="28" y="145" width="8" height="10" rx="5" fill="#ff8a50"/>
      <text x="28" y="178" class="font small muted">22:06 恢复</text>
      <text x="28" y="211" class="label">周</text>
      <text x="204" y="211" class="pct">0%</text>
      <rect x="28" y="226" width="180" height="10" rx="5" fill="rgba(255,255,255,.24)"/>
      <text x="28" y="252" class="font small muted">6月16日 恢复</text>

      <text x="280" y="92" class="font" font-size="25" font-weight="780" fill="#42d66b">Codex</text>
      <text x="280" y="128" class="label">5h</text>
      <text x="446" y="128" class="pct">99%</text>
      <rect x="280" y="145" width="180" height="10" rx="5" fill="rgba(255,255,255,.24)"/>
      <rect x="280" y="145" width="178" height="10" rx="5" fill="#42d66b"/>
      <text x="280" y="178" class="font small muted">22:06 恢复</text>
      <text x="280" y="211" class="label">周</text>
      <text x="446" y="211" class="pct">94%</text>
      <rect x="280" y="226" width="180" height="10" rx="5" fill="rgba(255,255,255,.24)"/>
      <rect x="280" y="226" width="169" height="10" rx="5" fill="#42d66b"/>
      <text x="280" y="252" class="font small muted">6月16日 恢复</text>
    </g>

    <text x="274" y="416" class="font" font-size="19" font-weight="650" fill="white">AI Usage</text>

    <!-- Mini state widgets -->
    <g transform="translate(54 484)">
      <rect width="152" height="118" rx="26" fill="url(#widgetBlack)" stroke="rgba(255,255,255,.10)"/>
      <text x="16" y="28" class="font" font-size="13" font-weight="750" fill="#fff">别问了还剩这么点🤏</text>
      <text x="16" y="64" class="font" font-size="18" font-weight="760" fill="#ff8a50">Claude</text>
      <text x="16" y="94" class="font" font-size="18" font-weight="680" fill="#f4f4f5">摸 Mac 中...🫳</text>
    </g>
    <g transform="translate(226 484)">
      <rect width="152" height="118" rx="26" fill="url(#widgetBlack)" stroke="rgba(255,255,255,.10)"/>
      <text x="16" y="28" class="font" font-size="13" font-weight="750" fill="#fff">别问了还剩这么点🤏</text>
      <text x="16" y="66" class="font" font-size="20" font-weight="760" fill="#f8f8f9">用量装神秘🙄</text>
      <text x="16" y="94" class="font" font-size="15" font-weight="560" fill="rgba(255,255,255,.52)">官方又藏了</text>
    </g>
    <g transform="translate(398 484)">
      <rect width="152" height="118" rx="26" fill="url(#widgetBlack)" stroke="rgba(255,255,255,.10)"/>
      <text x="16" y="28" class="font" font-size="13" font-weight="750" fill="#fff">别问了还剩这么点🤏</text>
      <text x="16" y="66" class="font" font-size="20" font-weight="760" fill="#f8f8f9">Mac 装睡了💤</text>
      <text x="16" y="94" class="font" font-size="15" font-weight="560" fill="rgba(255,255,255,.52)">留着上次读数</text>
    </g>
  </g>

  <!-- iPhone app screen -->
  <g transform="translate(760 138)" filter="url(#softShadow)">
    <rect width="420" height="790" rx="52" fill="#ffffff"/>
    <text x="42" y="78" class="font" font-size="38" font-weight="820" fill="#111317">AI Usage</text>
    <rect x="312" y="42" width="76" height="38" rx="19" fill="#f4f5f6" stroke="#e1e4e8"/>
    <text x="330" y="67" class="font" font-size="15" font-weight="680" fill="#1d2228">语言</text>

    <rect x="32" y="110" width="356" height="62" rx="20" fill="#fbfbfc" stroke="#e5e7ea"/>
    <circle cx="58" cy="141" r="7" fill="#34c759"/>
    <text x="78" y="136" class="font" font-size="17" font-weight="730" fill="#191d22">Kaide MacBook Pro · 在线</text>
    <text x="78" y="158" class="font" font-size="13" font-weight="520" fill="#848b93">局域网 192.168.1.23:8787</text>
    <text x="358" y="149" class="font" font-size="24" fill="#a3a8ae">›</text>

    <g transform="translate(32 198) scale(.71)">
      <rect x="0" y="0" width="502" height="258" rx="34" fill="url(#widgetBlack)" stroke="rgba(255,255,255,.08)" stroke-width="1.5"/>
      <text x="28" y="48" class="font" font-size="24" font-weight="800" fill="#ffffff">别问了还剩这么点🤏</text>
      <rect x="336" y="20" width="118" height="34" rx="17" fill="rgba(255,255,255,.08)" stroke="rgba(255,255,255,.10)"/>
      <text x="352" y="43" class="font" font-size="14" font-weight="650" fill="#cfd3d8">摸到了，刚刷新😏</text>
      <line x1="250" y1="74" x2="250" y2="226" stroke="rgba(255,255,255,.16)" stroke-width="1"/>
      <text x="28" y="92" class="font" font-size="25" font-weight="780" fill="#ff8a50">Claude</text>
      <text x="28" y="128" class="label">5h</text><text x="204" y="128" class="pct">3%</text>
      <rect x="28" y="145" width="180" height="10" rx="5" fill="rgba(255,255,255,.24)"/><rect x="28" y="145" width="8" height="10" rx="5" fill="#ff8a50"/>
      <text x="28" y="178" class="font small muted">22:06 恢复</text><text x="28" y="211" class="label">周</text><text x="204" y="211" class="pct">0%</text>
      <rect x="28" y="226" width="180" height="10" rx="5" fill="rgba(255,255,255,.24)"/>
      <text x="280" y="92" class="font" font-size="25" font-weight="780" fill="#42d66b">Codex</text>
      <text x="280" y="128" class="label">5h</text><text x="446" y="128" class="pct">99%</text>
      <rect x="280" y="145" width="180" height="10" rx="5" fill="rgba(255,255,255,.24)"/><rect x="280" y="145" width="178" height="10" rx="5" fill="#42d66b"/>
      <text x="280" y="178" class="font small muted">22:06 恢复</text><text x="280" y="211" class="label">周</text><text x="446" y="211" class="pct">94%</text>
      <rect x="280" y="226" width="180" height="10" rx="5" fill="rgba(255,255,255,.24)"/><rect x="280" y="226" width="169" height="10" rx="5" fill="#42d66b"/>
    </g>

    <rect x="32" y="408" width="170" height="178" rx="22" fill="#fbfbfc" stroke="#e5e7ea"/>
    <text x="54" y="446" class="font" font-size="20" font-weight="790" fill="#ff7e42">Claude</text>
    <text x="54" y="484" class="font" font-size="18" fill="#111317">5h</text><text x="154" y="484" class="font" font-size="22" font-weight="760" fill="#111317">3%</text>
    <rect x="54" y="500" width="122" height="8" rx="4" fill="#d9dde2"/><rect x="54" y="500" width="6" height="8" rx="4" fill="#ff8a50"/>
    <text x="54" y="532" class="font" font-size="15" fill="#7d848c">周</text><text x="154" y="532" class="font" font-size="22" font-weight="760" fill="#111317">0%</text>
    <rect x="54" y="548" width="122" height="8" rx="4" fill="#d9dde2"/>

    <rect x="218" y="408" width="170" height="178" rx="22" fill="#fbfbfc" stroke="#e5e7ea"/>
    <text x="240" y="446" class="font" font-size="20" font-weight="790" fill="#1fbf58">Codex</text>
    <text x="240" y="484" class="font" font-size="18" fill="#111317">5h</text><text x="337" y="484" class="font" font-size="22" font-weight="760" fill="#111317">99%</text>
    <rect x="240" y="500" width="122" height="8" rx="4" fill="#d9dde2"/><rect x="240" y="500" width="120" height="8" rx="4" fill="#33c95f"/>
    <text x="240" y="532" class="font" font-size="15" fill="#7d848c">周</text><text x="337" y="532" class="font" font-size="22" font-weight="760" fill="#111317">94%</text>
    <rect x="240" y="548" width="122" height="8" rx="4" fill="#d9dde2"/><rect x="240" y="548" width="115" height="8" rx="4" fill="#33c95f"/>

    <rect x="32" y="618" width="356" height="58" rx="21" fill="#141517"/>
    <text x="145" y="655" class="font" font-size="19" font-weight="760" fill="#fff">↻  刷新 Usage</text>
    <text x="55" y="730" class="font" font-size="15" font-weight="700" fill="#007aff">Classic</text>
    <text x="178" y="730" class="font" font-size="15" font-weight="600" fill="#8b929a">Liquid Glass</text>
  </g>

  <!-- Mac connector -->
  <g transform="translate(1234 178)" filter="url(#softShadow)">
    <rect width="314" height="260" rx="22" fill="#fdfdfd" stroke="#d9dde2"/>
    <text x="24" y="44" class="font" font-size="22" font-weight="780" fill="#111317">AI Usage 连接器</text>
    <rect x="24" y="74" width="266" height="58" rx="18" fill="#f5f7f9" stroke="#e3e7eb"/>
    <circle cx="50" cy="103" r="11" fill="#34c759"/>
    <text x="72" y="100" class="font" font-size="17" font-weight="760" fill="#111317">已连接</text>
    <text x="72" y="120" class="font" font-size="13" fill="#858b93">iPhone 已通过局域网连接</text>
    <rect x="24" y="154" width="122" height="72" rx="18" fill="#fff" stroke="#e3e7eb"/>
    <text x="42" y="184" class="font" font-size="16" font-weight="740" fill="#ff7e42">Claude</text>
    <text x="42" y="210" class="font" font-size="14" fill="#111317">5h  3%</text>
    <rect x="96" y="203" width="34" height="6" rx="3" fill="#ff8a50"/>
    <rect x="168" y="154" width="122" height="72" rx="18" fill="#fff" stroke="#e3e7eb"/>
    <text x="186" y="184" class="font" font-size="16" font-weight="740" fill="#1fbf58">Codex</text>
    <text x="186" y="210" class="font" font-size="14" fill="#111317">5h  99%</text>
    <rect x="240" y="203" width="34" height="6" rx="3" fill="#33c95f"/>
    <text x="24" y="244" class="font" font-size="12.5" fill="#777f88">不会发送 token、Cookie、对话或原始日志。</text>
  </g>
</svg>
